<svg data-v-423bf9ae="" xmlns="http://www.w3.org/2000/svg" viewBox="0 0 560 107" class="iconLeft"><!----><!----><!----><g data-v-423bf9ae="" id="4bbae313-c9c8-4f2f-8889-84859a52313f" fill="#76b852" transform="matrix(5.692599126021807,0,0,5.692599126021807,93.66055446685837,-26.088848234232643)"><path d="M6.30 13.22L6.30 13.22Q7.03 15.11 7.87 16.65L7.87 16.65L7.87 16.65Q8.71 18.19 9.32 18.72L9.32 18.72L9.32 18.72Q9.16 18.90 8.80 19.04L8.80 19.04L8.80 19.04Q8.44 19.18 8.15 19.18L8.15 19.18L8.15 19.18Q7.71 19.18 7.42 18.99L7.42 18.99L7.42 18.99Q7.13 18.80 6.83 18.31L6.83 18.31L6.83 18.31Q6.52 17.81 6.08 16.79L6.08 16.79L4.90 14.15L3.56 15.04L3.56 15.04Q3.25 16.98 3.25 17.60L3.25 17.60L3.25 17.60Q3.25 18.41 3.58 18.83L3.58 18.83L3.58 18.83Q3.02 19.19 2.51 19.19L2.51 19.19L2.51 19.19Q1.99 19.19 1.75 18.93L1.75 18.93L1.75 18.93Q1.51 18.66 1.51 18.06L1.51 18.06L1.51 18.06Q1.51 17.25 1.74 15.58L1.74 15.58L1.74 15.58Q1.96 13.90 2.59 10.11L2.59 10.11L2.16 9.25L2.16 9.25Q3.14 8.67 3.82 8.67L3.82 8.67L3.82 8.67Q4.44 8.67 4.44 9.41L4.44 9.41L4.44 9.41Q4.44 9.66 3.98 12.43L3.98 12.43L3.72 13.94L4.21 13.58L4.21 13.58Q5.53 12.60 6.27 11.90L6.27 11.90L6.27 11.90Q7.01 11.20 7.34 10.63L7.34 10.63L7.34 10.63Q7.66 10.05 7.66 9.46L7.66 9.46L7.66 9.46Q7.66 9.25 7.55 8.99L7.55 8.99L7.55 8.99Q7.76 8.85 8.02 8.76L8.02 8.76L8.02 8.76Q8.27 8.68 8.51 8.68L8.51 8.68L8.51 8.68Q8.93 8.68 9.20 8.95L9.20 8.95L9.20 8.95Q9.46 9.21 9.46 9.63L9.46 9.63L9.46 9.63Q9.46 10.42 8.73 11.24L8.73 11.24L8.73 11.24Q7.99 12.07 6.30 13.22L6.30 13.22ZM16.93 13.68L16.93 13.68Q18.05 13.89 18.68 14.54L18.68 14.54L18.68 14.54Q19.31 15.19 19.31 16.17L19.31 16.17L19.31 16.17Q19.31 17.04 18.77 17.73L18.77 17.73L18.77 17.73Q18.23 18.42 17.26 18.81L17.26 18.81L17.26 18.81Q16.30 19.19 15.08 19.19L15.08 19.19L15.08 19.19Q13.22 19.19 12.20 18.75L12.20 18.75L12.20 18.75Q11.19 18.30 11.19 17.49L11.19 17.49L11.19 17.49Q11.19 16.69 11.42 15.04L11.42 15.04L11.42 15.04Q11.65 13.38 12.22 10.11L12.22 10.11L11.79 9.25L11.79 9.25Q12.77 8.67 13.45 8.67L13.45 8.67L13.45 8.67Q14.06 8.67 14.08 9.38L14.08 9.38L14.08 9.38Q15.54 8.65 16.84 8.65L16.84 8.65L16.84 8.65Q17.96 8.65 18.61 9.23L18.61 9.23L18.61 9.23Q19.26 9.80 19.26 10.79L19.26 10.79L19.26 10.79Q19.26 11.69 18.66 12.44L18.66 12.44L18.66 12.44Q18.05 13.19 16.93 13.68L16.93 13.68ZM13.97 10.30L13.97 10.30Q13.69 11.62 13.34 13.71L13.34 13.71L13.34 13.71Q14.60 13.62 15.53 13.27L15.53 13.27L15.53 13.27Q16.45 12.92 16.95 12.36L16.95 12.36L16.95 12.36Q17.44 11.79 17.44 11.07L17.44 11.07L17.44 11.07Q17.44 9.86 16.03 9.86L16.03 9.86L16.03 9.86Q14.99 9.86 13.97 10.30L13.97 10.30ZM14.99 18.16L14.99 18.16Q16.14 18.16 16.82 17.63L16.82 17.63L16.82 17.63Q17.50 17.09 17.50 16.21L17.50 16.21L17.50 16.21Q17.50 15.34 16.91 14.86L16.91 14.86L16.91 14.86Q16.31 14.38 15.22 14.38L15.22 14.38L15.22 14.38Q14.27 14.38 13.22 14.64L13.22 14.64L13.22 14.64Q12.98 16.25 12.88 17.78L12.88 17.78L12.88 17.78Q13.33 17.95 13.89 18.05L13.89 18.05L13.89 18.05Q14.46 18.16 14.99 18.16L14.99 18.16ZM25.24 19.18L25.24 19.18Q23.44 19.18 22.42 18.13L22.42 18.13L22.42 18.13Q21.41 17.08 21.41 15.19L21.41 15.19L21.41 15.19Q21.41 13.36 22.21 11.87L22.21 11.87L22.21 11.87Q23.02 10.37 24.39 9.52L24.39 9.52L24.39 9.52Q25.76 8.67 27.41 8.67L27.41 8.67L27.41 8.67Q28.42 8.67 28.99 8.99L28.99 8.99L28.99 8.99Q29.57 9.31 29.57 9.88L29.57 9.88L29.57 9.88Q29.57 10.36 29.19 10.69L29.19 10.69L29.19 10.69Q28.81 11.02 28.25 11.02L28.25 11.02L28.25 11.02Q26.94 11.02 26.35 9.86L26.35 9.86L26.35 9.86Q25.44 10.25 24.72 11.05L24.72 11.05L24.72 11.05Q24.01 11.84 23.60 12.94L23.60 12.94L23.60 12.94Q23.20 14.04 23.20 15.30L23.20 15.30L23.20 15.30Q23.20 16.66 23.73 17.43L23.73 17.43L23.73 17.43Q24.26 18.20 25.20 18.20L25.20 18.20L25.20 18.20Q26.28 18.20 26.97 17.43L26.97 17.43L26.97 17.43Q27.66 16.66 27.75 15.47L27.75 15.47L27.75 15.47Q28.90 15.47 28.90 16.44L28.90 16.44L28.90 16.44Q28.90 17.18 28.40 17.81L28.40 17.81L28.40 17.81Q27.90 18.44 27.06 18.81L27.06 18.81L27.06 18.81Q26.22 19.18 25.24 19.18L25.24 19.18ZM38.28 12.43L38.28 12.43Q38.28 13.87 36.80 14.69L36.80 14.69L36.80 14.69Q35.32 15.51 32.59 15.58L32.59 15.58L32.59 15.85L32.59 15.85Q32.59 16.97 33.01 17.61L33.01 17.61L33.01 17.61Q33.43 18.24 34.16 18.24L34.16 18.24L34.16 18.24Q35.07 18.24 35.64 17.67L35.64 17.67L35.64 17.67Q36.22 17.09 36.27 16.14L36.27 16.14L36.27 16.14Q37.41 16.14 37.41 16.98L37.41 16.98L37.41 16.98Q37.41 17.54 36.96 18.05L36.96 18.05L36.96 18.05Q36.51 18.56 35.73 18.87L35.73 18.87L35.73 18.87Q34.96 19.18 34.02 19.18L34.02 19.18L34.02 19.18Q32.54 19.18 31.70 18.27L31.70 18.27L31.70 18.27Q30.86 17.36 30.86 15.76L30.86 15.76L30.86 15.76Q30.86 14.25 31.51 13.03L31.51 13.03L31.51 13.03Q32.17 11.82 33.33 11.12L33.33 11.12L33.33 11.12Q34.50 10.43 35.92 10.43L35.92 10.43L35.92 10.43Q37.03 10.43 37.65 10.96L37.65 10.96L37.65 10.96Q38.28 11.49 38.28 12.43L38.28 12.43ZM35.69 11.31L35.69 11.31Q34.97 11.31 34.35 11.77L34.35 11.77L34.35 11.77Q33.73 12.22 33.29 13.01L33.29 13.01L33.29 13.01Q32.84 13.80 32.68 14.80L32.68 14.80L32.68 14.80Q34.61 14.76 35.68 14.13L35.68 14.13L35.68 14.13Q36.75 13.50 36.75 12.39L36.75 12.39L36.75 12.39Q36.75 11.90 36.46 11.61L36.46 11.61L36.46 11.61Q36.16 11.31 35.69 11.31L35.69 11.31ZM45.60 16.60L45.60 16.60Q46.03 17.37 46.45 17.77L46.45 17.77L46.45 17.77Q46.86 18.16 47.43 18.37L47.43 18.37L47.43 18.37Q47.19 18.76 46.84 18.97L46.84 18.97L46.84 18.97Q46.48 19.18 46.07 19.18L46.07 19.18L46.07 19.18Q45.54 19.18 45.14 18.82L45.14 18.82L45.14 18.82Q44.74 18.47 44.30 17.58L44.30 17.58L43.22 15.64L43.22 15.64Q42.14 16.44 41.63 17.11L41.63 17.11L41.63 17.11Q41.12 17.78 41.12 18.30L41.12 18.30L41.12 18.30Q41.12 18.58 41.23 18.83L41.23 18.83L41.23 18.83Q41.06 18.97 40.78 19.08L40.78 19.08L40.78 19.08Q40.50 19.18 40.22 19.18L40.22 19.18L40.22 19.18Q39.86 19.18 39.63 18.92L39.63 18.92L39.63 18.92Q39.41 18.66 39.41 18.24L39.41 18.24L39.41 18.24Q39.41 17.77 39.84 17.23L39.84 17.23L39.84 17.23Q40.28 16.69 41.45 15.82L41.45 15.82L42.77 14.80L41.78 13.01L41.78 13.01Q41.34 12.24 40.94 11.85L40.94 11.85L40.94 11.85Q40.53 11.47 39.94 11.26L39.94 11.26L39.94 11.26Q40.18 10.86 40.54 10.65L40.54 10.65L40.54 10.65Q40.89 10.43 41.30 10.43L41.30 10.43L41.30 10.43Q41.85 10.43 42.25 10.79L42.25 10.79L42.25 10.79Q42.64 11.14 43.09 12.04L43.09 12.04L44.11 13.89L44.11 13.89Q45.15 13.12 45.64 12.47L45.64 12.47L45.64 12.47Q46.13 11.82 46.13 11.31L46.13 11.31L46.13 11.31Q46.13 11.00 46.02 10.78L46.02 10.78L46.02 10.78Q46.19 10.63 46.46 10.52L46.46 10.52L46.46 10.52Q46.73 10.42 47.01 10.42L47.01 10.42L47.01 10.42Q47.39 10.42 47.61 10.68L47.61 10.68L47.61 10.68Q47.84 10.93 47.84 11.37L47.84 11.37L47.84 11.37Q47.84 11.82 47.40 12.37L47.40 12.37L47.40 12.37Q46.96 12.92 45.79 13.78L45.79 13.78L44.56 14.73L45.60 16.60ZM55.99 18.06L55.99 18.06Q55.99 18.55 56.24 18.79L56.24 18.79L56.24 18.79Q55.80 19.18 55.30 19.18L55.30 19.18L55.30 19.18Q54.82 19.18 54.57 18.89L54.57 18.89L54.57 18.89Q54.32 18.59 54.32 18.03L54.32 18.03L54.32 18.03Q54.32 17.72 54.42 17.19L54.42 17.19L54.28 17.12L54.28 17.12Q53.77 18.10 53.01 18.64L53.01 18.64L53.01 18.64Q52.25 19.18 51.35 19.18L51.35 19.18L51.35 19.18Q50.60 19.18 50.02 18.77L50.02 18.77L50.02 18.77Q49.43 18.37 49.12 17.62L49.12 17.62L49.12 17.62Q48.80 16.87 48.80 15.89L48.80 15.89L48.80 15.89Q48.80 14.38 49.52 13.13L49.52 13.13L49.52 13.13Q50.23 11.87 51.46 11.15L51.46 11.15L51.46 11.15Q52.70 10.43 54.18 10.43L54.18 10.43L54.18 10.43Q54.82 10.43 55.50 10.54L55.50 10.54L55.50 10.54Q55.59 10.71 55.65 10.99L55.65 10.99L55.65 10.99Q55.94 10.78 56.32 10.78L56.32 10.78L56.32 10.78Q56.67 10.78 56.88 10.95L56.88 10.95L56.88 10.95Q57.08 11.12 57.08 11.41L57.08 11.41L57.08 11.41Q57.08 11.73 56.99 12.18L56.99 12.18L56.99 12.18Q56.90 12.63 56.69 13.50L56.69 13.50L56.69 13.50Q56.35 14.91 56.17 15.95L56.17 15.95L56.17 15.95Q55.99 16.98 55.99 18.06L55.99 18.06ZM52.02 17.86L52.02 17.86Q53.33 17.86 54.17 16.21L54.17 16.21L54.17 16.21Q55.01 14.55 55.43 11.20L55.43 11.20L55.43 11.20Q53.91 11.24 52.80 11.87L52.80 11.87L52.80 11.87Q51.69 12.49 51.11 13.52L51.11 13.52L51.11 13.52Q50.53 14.56 50.53 15.85L50.53 15.85L50.53 15.85Q50.53 16.80 50.92 17.33L50.92 17.33L50.92 17.33Q51.31 17.86 52.02 17.86L52.02 17.86ZM60.62 19.18L60.62 19.18Q60.13 19.18 59.90 18.93L59.90 18.93L59.90 18.93Q59.67 18.68 59.67 18.19L59.67 18.19L59.67 18.19Q59.67 17.49 60.07 15.48L60.07 15.48L60.07 15.48Q60.47 13.48 60.89 11.83L60.89 11.83L60.26 11.13L60.26 11.13Q60.59 10.84 61.05 10.65L61.05 10.65L61.05 10.65Q61.50 10.47 61.87 10.47L61.87 10.47L61.87 10.47Q62.29 10.47 62.45 10.64L62.45 10.64L62.45 10.64Q62.62 10.81 62.62 11.24L62.62 11.24L62.62 11.24Q62.62 11.61 62.50 12.07L62.50 12.07L62.50 12.07Q62.38 12.53 62.19 12.92L62.19 12.92L62.33 12.99L62.33 12.99Q63.04 11.63 63.89 11.03L63.89 11.03L63.89 11.03Q64.74 10.43 65.77 10.43L65.77 10.43L65.77 10.43Q67.45 10.43 67.45 12.19L67.45 12.19L67.45 12.19Q67.45 12.54 67.35 12.92L67.35 12.92L67.49 12.99L67.49 12.99Q68.24 11.63 69.10 11.03L69.10 11.03L69.10 11.03Q69.97 10.43 71.02 10.43L71.02 10.43L71.02 10.43Q71.93 10.43 72.38 10.89L72.38 10.89L72.38 10.89Q72.83 11.34 72.83 12.29L72.83 12.29L72.83 12.29Q72.83 12.85 72.71 13.45L72.71 13.45L72.71 13.45Q72.59 14.06 72.37 14.97L72.37 14.97L72.37 14.97Q72.10 16.03 71.97 16.71L71.97 16.71L71.97 16.71Q71.85 17.39 71.85 18.06L71.85 18.06L71.85 18.06Q71.85 18.58 72.02 18.79L72.02 18.79L72.02 18.79Q71.61 19.18 71.15 19.18L71.15 19.18L71.15 19.18Q70.18 19.18 70.18 18.16L70.18 18.16L70.18 18.16Q70.18 17.63 70.30 16.95L70.30 16.95L70.30 16.95Q70.42 16.27 70.66 15.25L70.66 15.25L70.66 15.25Q70.88 14.25 70.98 13.71L70.98 13.71L70.98 13.71Q71.08 13.16 71.08 12.75L71.08 12.75L71.08 12.75Q71.08 12.19 70.88 11.91L70.88 11.91L70.88 11.91Q70.67 11.62 70.21 11.62L70.21 11.62L70.21 11.62Q69.41 11.62 68.56 12.46L68.56 12.46L68.56 12.46Q67.72 13.30 67.15 14.78L67.15 14.78L67.15 14.78Q66.58 16.25 66.58 18.06L66.58 18.06L66.58 18.06Q66.58 18.59 66.77 18.79L66.77 18.79L66.77 18.79Q66.36 19.18 65.88 19.18L65.88 19.18L65.88 19.18Q64.93 19.18 64.93 18.16L64.93 18.16L64.93 18.16Q64.93 17.63 65.05 16.95L65.05 16.95L65.05 16.95Q65.17 16.27 65.41 15.25L65.41 15.25L65.41 15.25Q65.63 14.25 65.73 13.71L65.73 13.71L65.73 13.71Q65.83 13.16 65.83 12.75L65.83 12.75L65.83 12.75Q65.83 11.62 64.96 11.62L64.96 11.62L64.96 11.62Q64.16 11.62 63.32 12.46L63.32 12.46L63.32 12.46Q62.47 13.30 61.90 14.78L61.90 14.78L61.90 14.78Q61.33 16.25 61.33 18.06L61.33 18.06L61.33 18.06Q61.33 18.58 61.50 18.79L61.50 18.79L61.50 18.79Q61.10 19.18 60.62 19.18L60.62 19.18ZM77.59 19.18L77.59 19.18Q76.20 19.18 75.40 18.80L75.40 18.80L75.40 18.80Q74.61 18.42 74.61 17.75L74.61 17.75L74.61 17.75Q74.61 17.47 74.77 17.22L74.77 17.22L74.77 17.22Q74.94 16.97 75.25 16.80L75.25 16.80L75.25 16.80Q75.60 17.50 76.19 17.87L76.19 17.87L76.19 17.87Q76.78 18.24 77.49 18.24L77.49 18.24L77.49 18.24Q78.50 18.24 79.11 17.86L79.11 17.86L79.11 17.86Q79.73 17.49 79.73 16.77L79.73 16.77L79.73 16.77Q79.73 16.34 79.28 16.07L79.28 16.07L79.28 16.07Q78.82 15.81 77.88 15.48L77.88 15.48L77.88 15.48Q77.01 15.19 76.45 14.92L76.45 14.92L76.45 14.92Q75.89 14.66 75.50 14.20L75.50 14.20L75.50 14.20Q75.11 13.75 75.11 13.08L75.11 13.08L75.11 13.08Q75.11 12.31 75.64 11.70L75.64 11.70L75.64 11.70Q76.17 11.10 77.12 10.77L77.12 10.77L77.12 10.77Q78.06 10.43 79.30 10.43L79.30 10.43L79.30 10.43Q80.42 10.43 81.14 10.77L81.14 10.77L81.14 10.77Q81.86 11.10 81.86 11.62L81.86 11.62L81.86 11.62Q81.86 12.12 81.52 12.40L81.52 12.40L81.52 12.40Q81.19 12.67 80.64 12.67L80.64 12.67L80.64 12.67Q80.11 12.67 79.73 12.33L79.73 12.33L79.73 12.33Q79.35 12.00 79.16 11.35L79.16 11.35L79.16 11.35Q78.01 11.48 77.36 11.89L77.36 11.89L77.36 11.89Q76.71 12.31 76.71 12.89L76.71 12.89L76.71 12.89Q76.71 13.30 77.13 13.55L77.13 13.55L77.13 13.55Q77.56 13.79 78.51 14.13L78.51 14.13L78.51 14.13Q79.41 14.43 79.96 14.70L79.96 14.70L79.96 14.70Q80.51 14.97 80.91 15.42L80.91 15.42L80.91 15.42Q81.31 15.88 81.31 16.56L81.31 16.56L81.31 16.56Q81.31 17.30 80.86 17.90L80.86 17.90L80.86 17.90Q80.42 18.49 79.57 18.84L79.57 18.84L79.57 18.84Q78.72 19.18 77.59 19.18L77.59 19.18Z"></path></g><!----><g data-v-423bf9ae="" id="59a5e89b-8c8d-4c45-9376-4407f2cb97ad" transform="matrix(1.0868111504448785,0,0,1.0868111504448785,-13.255261890115804,-0.23894260335429607)" stroke="none" fill="#76b852"><g clip-rule="evenodd"><path d="M12.983 10.59l17.018 88.223-5.872-59.049 29.021-1.892-.054-9.883L64.549 1 53.622 18.977z"></path><path d="M59.389 54.548l5.16-53.541-8.74 39.716-19.612 1.045 1.57 20.462-7.766 36.583 12.057-39.899z"></path><path d="M62.8 67.182l.549-10.453-15.979 3.755-.032 11.797-17.337 26.532 21.68-27.616zM65.711 62.394l14.841-4.731 1.509-12.532-15.899 2.095zM72.07 44.502l10.988-1.417 1.581-10.278-8.079-.373L64.549 1l8.43 30.967z"></path><path d="M87.413 31.294l1.256-9.506-9.544-2.694L64.549 1l14.483 22.437-.422 7z"></path></g></g><!----></svg>